<?xml version="1.0" encoding="utf-8"?>
<!-- Generator: Adobe Illustrator 24.0.1, SVG Export Plug-In . SVG Version: 6.00 Build 0)  -->
<svg version="1.1" id="Capa_1" xmlns="http://www.w3.org/2000/svg" xmlns:xlink="http://www.w3.org/1999/xlink" x="0px" y="0px"
	 viewBox="0 0 650 670" style="enable-background:new 0 0 650 670;" xml:space="preserve">
<style type="text/css">
	.st0{fill:#FFFFFF;}
	.st1{fill:#ED8200;}
	.st2{fill:none;stroke:#E9E9E9;stroke-miterlimit:10;}
	.st3{fill:#2931CC;}
	.st4{fill:#5200CC;}
	.st5{fill:url(#SVGID_1_);}
	.st6{fill:url(#SVGID_2_);}
	.st7{fill:#7B29CC;}
	.st8{fill:url(#SVGID_3_);}
	.st9{fill:url(#SVGID_4_);}
	.st10{fill:url(#SVGID_5_);}
	.st11{fill:url(#SVGID_6_);}
	.st12{fill:url(#SVGID_7_);}
	.st13{fill:url(#SVGID_8_);}
	.st14{fill:none;}
	.st15{fill:#00CCBB;}
	.st16{fill:url(#SVGID_9_);}
	.st17{fill:url(#SVGID_10_);}
	.st18{fill:url(#SVGID_11_);}
	.st19{fill:url(#SVGID_12_);}
	.st20{fill:url(#SVGID_13_);}
	.st21{fill:url(#SVGID_14_);}
	.st22{fill:url(#SVGID_15_);}
	.st23{fill:url(#SVGID_16_);}
	.st24{fill:url(#SVGID_17_);}
	.st25{fill:url(#SVGID_18_);}
	.st26{fill:url(#SVGID_19_);}
	.st27{fill:url(#SVGID_20_);}
	.st28{fill:url(#SVGID_21_);}
	.st29{fill:url(#SVGID_22_);}
	.st30{fill:url(#SVGID_23_);}
	.st31{fill:url(#SVGID_24_);}
	.st32{fill:#C129CC;}
	.st33{fill:url(#SVGID_25_);}
	.st34{fill:url(#SVGID_26_);}
	.st35{fill:url(#SVGID_27_);}
	.st36{fill:url(#SVGID_28_);}
	.st37{fill:url(#SVGID_29_);}
	.st38{fill:url(#SVGID_30_);}
	.st39{fill:#ED1E55;}
	.st40{fill:url(#SVGID_31_);}
	.st41{fill:url(#SVGID_32_);}
	.st42{fill:url(#SVGID_33_);}
	.st43{fill:none;stroke:#FFFFFF;stroke-miterlimit:10;}
	.st44{fill:url(#SVGID_34_);}
	.st45{fill:url(#SVGID_35_);}
	.st46{fill:url(#SVGID_36_);}
	.st47{fill:url(#SVGID_37_);}
	.st48{fill:url(#SVGID_38_);}
	.st49{fill:url(#SVGID_39_);}
	.st50{fill:url(#SVGID_40_);}
	.st51{fill:url(#SVGID_41_);}
	.st52{fill:url(#SVGID_42_);}
	.st53{fill:url(#SVGID_43_);}
	.st54{fill:#00D96D;}
	.st55{fill:none;stroke:#00D96D;stroke-width:2;stroke-miterlimit:10;}
	.st56{fill:#70706F;}
	.st57{font-family:'Assistant-Regular';}
	.st58{font-size:12px;}
	.st59{fill:#00B3BA;}
	.st60{fill:#A9CF00;}
	.st61{font-family:'OpenSans-Semibold';}
	.st62{font-size:14px;}
	.st63{fill:#4A8AC9;}
	.st64{font-size:18px;}
	.st65{letter-spacing:1;}
	.st66{fill:#4D4D4D;}
	.st67{fill:url(#SVGID_44_);}
	.st68{fill:url(#SVGID_45_);}
	.st69{fill:#1D1D1B;}
	.st70{font-family:'Poppins-ExtraBold';}
	.st71{font-size:41.6456px;}
	.st72{letter-spacing:3;}
	.st73{fill:url(#SVGID_46_);}
	.st74{fill:none;stroke:#A9CF00;stroke-width:2;stroke-miterlimit:10;}
</style>
<rect x="-10.5" y="-12" class="st0" width="670.2" height="689.7"/>
<rect x="105" y="545.2" class="st14" width="440" height="61.5"/>
<text transform="matrix(1 0 0 1 271.3846 553.8068)"><tspan x="0" y="0" class="st56 st57 st58">¿Tienes alguna duda?</tspan><tspan x="-162.3" y="22" class="st56 st57 st58">Descuida, estamos para ayudarte. Escríbenos a </tspan><tspan x="73.4" y="22" class="st59 st57 st58">contacto@litterae.io</tspan><tspan x="175.9" y="22" class="st56 st57 st58"> e inmediatamente </tspan><tspan x="-95.3" y="44" class="st56 st57 st58">nos pondremos en contacto contigo para brindarte soporte. </tspan></text>
<rect x="222" y="450.4" class="st60" width="206" height="50"/>
<g>
	<text transform="matrix(1 0 0 1 252.5047 481.3514)" class="st0 st61 st62">Registrar mi empresa</text>
</g>
<text transform="matrix(1 0 0 1 280.4962 626.8279)" class="st63 st57 st58">https://litterae.io</text>
<rect x="96" y="272.1" class="st14" width="460" height="153.8"/>
<text transform="matrix(1 0 0 1 212.8897 284.9171)"><tspan x="0" y="0" class="st60 st57 st64 st65">PRE - registro exitoso</tspan><tspan x="-110.2" y="44" class="st66 st57 st62">¡Has realizado tu pre-registro con éxito! Ahora podrás accesar a la plataforma </tspan><tspan x="-103.9" y="66" class="st66 st57 st62">de LITTERAE en donde podrás registrar a tus colaboradores, a tu empresa y </tspan><tspan x="-72.3" y="88" class="st66 st57 st62">consultar las referencias laborales de tus futuros colaboradores.</tspan><tspan x="-47.4" y="132" class="st66 st57 st62">Haz clic en el botón de abajo para ir directo a tu cuenta.</tspan></text>
<g>
	<g>
		<linearGradient id="SVGID_1_" gradientUnits="userSpaceOnUse" x1="208.9782" y1="176.28" x2="225.2614" y2="159.9968">
			<stop  offset="0" style="stop-color:#009DCC"/>
			<stop  offset="1" style="stop-color:#00B3BA"/>
		</linearGradient>
		<rect x="213" y="159.2" class="st5" width="8.4" height="17.8"/>
		<linearGradient id="SVGID_2_" gradientUnits="userSpaceOnUse" x1="197.4738" y1="187.8702" x2="219.56" y2="165.7839">
			<stop  offset="0" style="stop-color:#004B70"/>
			<stop  offset="1" style="stop-color:#4A8AC9"/>
		</linearGradient>
		<polygon class="st6" points="201.3,188.6 221.5,188.6 221.5,180.1 209.9,180.1 209.7,180.1 209.7,159.2 201.3,159.2 		"/>
	</g>
	<text transform="matrix(1 0 0 1 229.9486 188.6328)" class="st69 st70 st71 st72">LITTERAE</text>
</g>
<linearGradient id="SVGID_3_" gradientUnits="userSpaceOnUse" x1="-71" y1="48.5" x2="724" y2="48.5">
	<stop  offset="0" style="stop-color:#D9CB00"/>
	<stop  offset="1" style="stop-color:#00CCCC"/>
</linearGradient>
<path class="st8" d="M-71-12h795v121L594,80.1c-50.7-11.3-103.3-10.8-153.8,1.3l-35.6,8.5c-52.3,12.5-106.9,12.5-159.2,0l-35.1-8.4
	c-50.8-12.2-103.8-12.5-154.8-1L-71,109V-12z"/>
<circle class="st60" cx="325" cy="242" r="19"/>
<path class="st0" d="M316.5,231.8v20.4h17v-20.4H316.5z M319.5,239.3h6.6v2h-6.6V239.3z M326,249.4h-6.6v-2h6.6V249.4z M329.9,245.3
	h-10.5v-2h10.5V245.3z M329.9,237.2h-10.5v-2h10.5V237.2z"/>
</svg>
