<?xml version="1.0" encoding="utf-8"?>
<!-- Generator: Adobe Illustrator 24.0.1, SVG Export Plug-In . SVG Version: 6.00 Build 0)  -->
<svg version="1.1" xmlns="http://www.w3.org/2000/svg" xmlns:xlink="http://www.w3.org/1999/xlink" x="0px" y="0px"
	 viewBox="0 0 421 82" style="enable-background:new 0 0 421 82;" xml:space="preserve">
<style type="text/css">
	.st0{fill:#2EBDEE;}
	.st1{fill:#CAD5CC;}
	.st2{fill:#A7D9E2;}
	.st3{fill:url(#SVGID_5_);}
	.st4{fill:#FFFFFF;}
	.st5{enable-background:new    ;}
	.st6{fill:url(#SVGID_6_);}
	.st7{fill:url(#SVGID_7_);}
	.st8{fill:#1D1D1B;}
	.st9{fill:url(#SVGID_8_);}
	.st10{fill:url(#SVGID_9_);}
</style>
<g id="Capa_1">
</g>
<g id="Capa_2">
</g>
<g id="Capa_3">
</g>
<g id="Capa_5">
</g>
<g id="Capa_4">
	<g>
		<g>
			<g>
				<rect x="20.9" y="16.4" class="st4" width="14.3" height="30.4"/>
			</g>
			<g>
				<polygon class="st4" points="1.1,66.6 35.5,66.6 35.5,52.1 15.6,52.1 15.4,52.1 15.4,16.4 1.1,16.4 				"/>
			</g>
		</g>
		<g>
			<path class="st4" d="M67.8,16.6V56h15.5v10.6H53.9v-50H67.8z"/>
			<path class="st4" d="M94,16.6h13.9v50H94V16.6z"/>
			<path class="st4" d="M118.4,16.6h40.5v11.1h-13.3v39h-13.9v-39h-13.2V16.6z"/>
			<path class="st4" d="M166.6,16.6h40.5v11.1h-13.3v39h-13.9v-39h-13.2V16.6z"/>
			<path class="st4" d="M249.6,27.7h-18.1v8.2h16v10.6h-16v9h18.1v11.1h-32v-50h32V27.7z"/>
			<path class="st4" d="M283.7,16.6c12.4,0,18.7,7.1,18.7,16c0,6.5-3.5,12.2-11,14.5l11.3,19.5h-15.5l-9.9-18.5h-1.5v18.5h-13.9v-50
				H283.7z M282.6,28.2h-6.9v10.4h6.9c3.8,0,5.7-1.8,5.7-5.3C288.2,30.3,286.3,28.2,282.6,28.2z"/>
			<path class="st4" d="M345.6,58.4h-17.7l-2.7,8.2h-14.6l18.2-50h16l18.2,50h-14.7L345.6,58.4z M336.8,31.6l-5.3,16.2h10.7
				L336.8,31.6z"/>
			<path class="st4" d="M404.9,27.7h-18.1v8.2h16v10.6h-16v9h18.1v11.1h-32v-50h32V27.7z"/>
		</g>
	</g>
</g>
</svg>
