<?xml version="1.0" encoding="utf-8"?>
<!-- Generator: Adobe Illustrator 24.0.1, SVG Export Plug-In . SVG Version: 6.00 Build 0)  -->
<svg version="1.1" xmlns="http://www.w3.org/2000/svg" xmlns:xlink="http://www.w3.org/1999/xlink" x="0px" y="0px"
	 viewBox="0 0 614 176" style="enable-background:new 0 0 614 176;" xml:space="preserve">
<style type="text/css">
	.st0{fill:#2EBDEE;}
	.st1{fill:#CAD5CC;}
	.st2{fill:#A7D9E2;}
	.st3{fill:url(#SVGID_5_);}
	.st4{fill:#FFFFFF;}
	.st5{enable-background:new    ;}
</style>
<g id="Capa_1">
</g>
<g id="Capa_2">
</g>
<g id="Capa_3">
</g>
<g id="Capa_5">
</g>
<g id="Capa_4">
	<g>
		<g>
			<g>
				<g>
					<rect x="217.6" y="46.1" class="st4" width="17.1" height="81.8"/>
				</g>
				<g>
					<polygon class="st4" points="301.4,60.2 301.4,46.1 255,46.1 255,127.8 272.2,127.8 272.2,95.5 299.4,95.5 299.4,81.4 
						272.2,81.4 272.2,60.2 					"/>
				</g>
			</g>
			<g>
				<g>
					<path class="st4" d="M89.4,86.6c-2.8,0-5.1,2.3-5.1,5v13.7c0,2.8,2.3,5,5.1,5c2.8,0,5.1-2.3,5.1-5V91.6
						C94.4,88.9,92.1,86.6,89.4,86.6z"/>
				</g>
				<g>
					<path class="st4" d="M138.8,86.6c-2.8,0-5.1,2.3-5.1,5v13.7c0,2.8,2.3,5,5.1,5c2.8,0,5.1-2.3,5.1-5V91.6
						C143.9,88.9,141.6,86.6,138.8,86.6z"/>
				</g>
				<g>
					<g>
						<g>
							<path class="st4" d="M190.4,69.7c-3.2-9-7.7-10.5-10.9-10.5c0,0,0,0,0,0c-1.7,0-3.4,0.3-4.9,1.2
								c-11.7-17.2-34.7-29.2-61.2-29.2c-26.1,0-48.9,11.8-60.7,28.7c-1.2-0.6-2.7-0.7-3.7-0.7c0,0,0,0,0,0
								c-8.7,0-16,14.2-15.9,31.3c0.1,18.8,6.3,30.3,16.2,30.3c0,0,0.1,0,0.1,0c4.9,0,7.4-3.8,7.4-3.8
								c11.4,12.7,30.7,23.1,56.8,23.1s45.8-10.7,57.1-23.7c0,0,3.2,4.4,9.1,4.4c0,0,0.1,0,0.1,0c10.5,0,13.9-17.5,13.9-30
								C193.7,82.8,192.5,75.4,190.4,69.7z M48.1,112.3c-2.4,0-6.8-10.3-6.8-23s3.8-22,6.8-22c3,0,6.8,9.3,6.8,22
								S50.5,112.3,48.1,112.3z M113.3,132c-27.2,0-43.5-12.6-52.3-23.9c1.1-4.5,2.1-11.8,2-17.5c0-3.4-0.3-6.8-0.7-9.9
								c7.9-14.1,27.7-24.2,50.9-24.2c23.2,0,43.1,10.1,50.9,24.3c-0.5,3-0.7,6.1-0.7,9.4c0,5.9,0.8,12.5,2.4,17.7
								C160.5,117.4,140.5,132,113.3,132z M167,70.6c-11-13.3-30.9-22.2-53.6-22.2c-22.5,0-42.2,8.7-53.2,21.7
								c-0.1-0.3-1.4-3.6-2-4.7C68,49.7,89,38.9,113.3,38.9c24.7,0,46.1,11.2,55.7,27.3C168.3,67.6,167.6,69,167,70.6z M178.7,112.3
								c-2.4,0-6.8-10.3-6.8-23s3.8-22,6.8-22s6.8,9.3,6.8,22S181.1,112.3,178.7,112.3z"/>
						</g>
					</g>
				</g>
			</g>
		</g>
		<g class="st5">
			<path class="st4" d="M354.9,50.5c-3.7,0-6.7,1.2-8.9,3.7c-2.2,2.5-3.2,5.9-3.2,10.2c0,4.5,1,7.9,3.1,10.3s5.1,3.6,8.9,3.6
				c2.4,0,5.1-0.4,8.1-1.3v3.5c-2.4,0.9-5.3,1.3-8.7,1.3c-5,0-8.9-1.5-11.6-4.6c-2.7-3-4.1-7.4-4.1-13c0-3.5,0.7-6.6,2-9.2
				c1.3-2.6,3.2-4.7,5.7-6.1c2.5-1.4,5.4-2.1,8.7-2.1c3.6,0,6.7,0.7,9.4,2l-1.7,3.4C360,51.1,357.4,50.5,354.9,50.5z"/>
			<path class="st4" d="M391.8,68.6c0,4.2-1,7.4-3.1,9.7s-5,3.5-8.7,3.5c-2.3,0-4.3-0.5-6.1-1.6s-3.1-2.6-4.1-4.6
				c-1-2-1.4-4.3-1.4-7c0-4.2,1-7.4,3.1-9.7c2.1-2.3,5-3.5,8.7-3.5c3.6,0,6.4,1.2,8.5,3.6C390.7,61.4,391.8,64.6,391.8,68.6z
				 M372.3,68.6c0,3.3,0.7,5.7,2,7.4c1.3,1.7,3.2,2.6,5.7,2.6c2.5,0,4.4-0.8,5.8-2.5c1.3-1.7,2-4.2,2-7.5c0-3.2-0.7-5.7-2-7.4
				c-1.3-1.7-3.2-2.5-5.8-2.5c-2.5,0-4.4,0.8-5.7,2.5C373,62.9,372.3,65.4,372.3,68.6z"/>
			<path class="st4" d="M416,81.4V64.9c0-2.1-0.5-3.6-1.4-4.7c-0.9-1-2.4-1.5-4.4-1.5c-2.7,0-4.6,0.7-5.9,2.2
				c-1.2,1.4-1.9,3.8-1.9,7.1v13.4h-3.9V55.9h3.1l0.6,3.5h0.2c0.8-1.3,1.9-2.2,3.3-2.9c1.4-0.7,3-1,4.8-1c3.1,0,5.4,0.7,6.9,2.2
				c1.6,1.5,2.3,3.8,2.3,7.1v16.6H416z"/>
			<path class="st4" d="M444.2,74.5c0,2.4-0.9,4.2-2.7,5.5c-1.8,1.3-4.2,1.9-7.4,1.9c-3.4,0-6-0.5-7.9-1.6v-3.6
				c1.2,0.6,2.5,1.1,3.9,1.5c1.4,0.4,2.8,0.5,4.1,0.5c2,0,3.6-0.3,4.7-1c1.1-0.6,1.6-1.6,1.6-2.9c0-1-0.4-1.8-1.3-2.5
				s-2.5-1.5-5-2.5c-2.4-0.9-4.1-1.7-5.1-2.3c-1-0.7-1.7-1.4-2.2-2.2c-0.5-0.8-0.7-1.8-0.7-3c0-2.1,0.8-3.7,2.5-4.9
				c1.7-1.2,4-1.8,7-1.8c2.7,0,5.4,0.6,8,1.7l-1.4,3.1c-2.6-1.1-4.9-1.6-7-1.6c-1.8,0-3.2,0.3-4.1,0.9c-0.9,0.6-1.4,1.4-1.4,2.4
				c0,0.7,0.2,1.3,0.5,1.7s0.9,0.9,1.7,1.4s2.3,1.1,4.5,1.9c3,1.1,5.1,2.2,6.1,3.3C443.7,71.4,444.2,72.8,444.2,74.5z"/>
			<path class="st4" d="M454.1,55.9v16.5c0,2.1,0.5,3.6,1.4,4.7c0.9,1,2.4,1.5,4.4,1.5c2.7,0,4.6-0.7,5.9-2.2
				c1.2-1.5,1.8-3.8,1.8-7.1V55.9h3.9v25.5h-3.2l-0.6-3.4h-0.2c-0.8,1.3-1.9,2.2-3.3,2.9c-1.4,0.7-3,1-4.8,1c-3.1,0-5.4-0.7-7-2.2
				s-2.3-3.8-2.3-7.1V55.9H454.1z"/>
			<path class="st4" d="M483.6,81.4h-3.9V45.2h3.9V81.4z"/>
			<path class="st4" d="M500,78.7c0.7,0,1.3,0,2-0.2c0.6-0.1,1.1-0.2,1.5-0.3v3c-0.4,0.2-1,0.4-1.8,0.5c-0.8,0.1-1.5,0.2-2.2,0.2
				c-4.9,0-7.4-2.6-7.4-7.8V58.9h-3.7v-1.9l3.7-1.6l1.6-5.4h2.2v5.9h7.4v3h-7.4v15c0,1.5,0.4,2.7,1.1,3.5
				C497.8,78.3,498.8,78.7,500,78.7z"/>
			<path class="st4" d="M530.6,68.6c0,4.2-1,7.4-3.1,9.7s-5,3.5-8.7,3.5c-2.3,0-4.3-0.5-6.1-1.6s-3.1-2.6-4.1-4.6
				c-1-2-1.4-4.3-1.4-7c0-4.2,1-7.4,3.1-9.7c2.1-2.3,5-3.5,8.7-3.5c3.6,0,6.4,1.2,8.5,3.6C529.6,61.4,530.6,64.6,530.6,68.6z
				 M511.2,68.6c0,3.3,0.7,5.7,2,7.4c1.3,1.7,3.2,2.6,5.7,2.6c2.5,0,4.4-0.8,5.8-2.5c1.3-1.7,2-4.2,2-7.5c0-3.2-0.7-5.7-2-7.4
				c-1.3-1.7-3.2-2.5-5.8-2.5c-2.5,0-4.4,0.8-5.7,2.5C511.8,62.9,511.2,65.4,511.2,68.6z"/>
			<path class="st4" d="M549,55.5c1.1,0,2.1,0.1,3,0.3l-0.5,3.6c-1.1-0.2-2-0.3-2.8-0.3c-2.1,0-3.8,0.8-5.3,2.5
				c-1.5,1.7-2.2,3.8-2.2,6.3v13.7h-3.9V55.9h3.2l0.4,4.7h0.2c0.9-1.7,2.1-2.9,3.4-3.8C546,55.9,547.4,55.5,549,55.5z"/>
		</g>
		<g class="st5">
			<path class="st4" d="M357.1,122.2h-0.2c-1.8,2.6-4.5,3.9-8,3.9c-3.3,0-5.9-1.1-7.8-3.4s-2.8-5.5-2.8-9.7c0-4.2,0.9-7.5,2.8-9.8
				s4.5-3.5,7.8-3.5c3.5,0,6.1,1.3,8,3.8h0.3l-0.2-1.8l-0.1-1.8V89.5h3.9v36.2h-3.1L357.1,122.2z M349.3,122.9
				c2.6,0,4.5-0.7,5.7-2.2s1.8-3.7,1.8-6.9V113c0-3.6-0.6-6.2-1.8-7.7c-1.2-1.5-3.1-2.3-5.8-2.3c-2.3,0-4,0.9-5.2,2.6
				c-1.2,1.8-1.8,4.2-1.8,7.5c0,3.3,0.6,5.7,1.8,7.4S347,122.9,349.3,122.9z"/>
			<path class="st4" d="M379.7,126.1c-3.8,0-6.7-1.1-8.9-3.4c-2.2-2.3-3.3-5.5-3.3-9.6c0-4.1,1-7.4,3-9.8c2-2.4,4.7-3.6,8.2-3.6
				c3.2,0,5.7,1.1,7.6,3.2c1.9,2.1,2.8,4.9,2.8,8.3v2.4h-17.6c0.1,3,0.8,5.3,2.3,6.8s3.5,2.3,6.1,2.3c2.7,0,5.5-0.6,8.1-1.7v3.4
				c-1.4,0.6-2.7,1-3.9,1.3S381.4,126.1,379.7,126.1z M378.6,102.9c-2,0-3.7,0.7-4.9,2c-1.2,1.3-1.9,3.2-2.2,5.5h13.3
				c0-2.4-0.5-4.3-1.6-5.6C382.2,103.6,380.6,102.9,378.6,102.9z"/>
			<path class="st4" d="M425.5,125.7v-16.5c0-2.1-0.5-3.6-1.4-4.7c-0.9-1-2.4-1.5-4.4-1.5c-2.7,0-4.6,0.7-5.9,2.2
				c-1.2,1.4-1.9,3.8-1.9,7.1v13.4H408v-25.5h3.1l0.6,3.5h0.2c0.8-1.3,1.9-2.2,3.3-2.9c1.4-0.7,3-1,4.8-1c3.1,0,5.4,0.7,6.9,2.2
				c1.6,1.5,2.3,3.8,2.3,7.1v16.6H425.5z"/>
			<path class="st4" d="M448,126.1c-3.8,0-6.7-1.1-8.9-3.4c-2.2-2.3-3.3-5.5-3.3-9.6c0-4.1,1-7.4,3-9.8c2-2.4,4.7-3.6,8.2-3.6
				c3.2,0,5.7,1.1,7.6,3.2c1.9,2.1,2.8,4.9,2.8,8.3v2.4h-17.6c0.1,3,0.8,5.3,2.3,6.8s3.5,2.3,6.1,2.3c2.7,0,5.5-0.6,8.1-1.7v3.4
				c-1.4,0.6-2.7,1-3.9,1.3S449.7,126.1,448,126.1z M447,102.9c-2,0-3.7,0.7-4.9,2c-1.2,1.3-1.9,3.2-2.2,5.5h13.3
				c0-2.4-0.5-4.3-1.6-5.6C450.5,103.6,449,102.9,447,102.9z"/>
			<path class="st4" d="M484.8,100.2v2.4l-4.7,0.6c0.4,0.5,0.8,1.3,1.2,2.1c0.3,0.9,0.5,1.9,0.5,3c0,2.5-0.9,4.5-2.6,6
				c-1.7,1.5-4,2.2-7,2.2c-0.8,0-1.5-0.1-2.1-0.2c-1.6,0.9-2.5,2-2.5,3.3c0,0.7,0.3,1.2,0.9,1.5c0.6,0.3,1.6,0.5,3,0.5h4.5
				c2.8,0,4.9,0.6,6.4,1.7c1.5,1.2,2.2,2.9,2.2,5.1c0,2.8-1.1,5-3.4,6.5c-2.3,1.5-5.6,2.2-9.9,2.2c-3.3,0-5.9-0.6-7.7-1.9
				s-2.7-3-2.7-5.3c0-1.6,0.5-2.9,1.5-4c1-1.1,2.4-1.9,4.2-2.3c-0.7-0.3-1.2-0.8-1.6-1.4c-0.4-0.6-0.7-1.3-0.7-2.2
				c0-0.9,0.2-1.7,0.7-2.4c0.5-0.7,1.3-1.4,2.3-2c-1.3-0.5-2.4-1.5-3.2-2.8s-1.2-2.8-1.2-4.5c0-2.8,0.8-4.9,2.5-6.5
				c1.7-1.5,4-2.3,7.1-2.3c1.3,0,2.5,0.2,3.6,0.5H484.8z M464.5,129.9c0,1.4,0.6,2.4,1.7,3.1c1.2,0.7,2.8,1.1,5,1.1
				c3.2,0,5.6-0.5,7.2-1.5c1.6-1,2.3-2.3,2.3-3.9c0-1.4-0.4-2.3-1.3-2.9c-0.9-0.5-2.5-0.8-4.8-0.8h-4.6c-1.8,0-3.1,0.4-4.1,1.3
				C465,127.2,464.5,128.4,464.5,129.9z M466.6,108.3c0,1.8,0.5,3.1,1.5,4c1,0.9,2.4,1.4,4.2,1.4c3.8,0,5.7-1.8,5.7-5.5
				c0-3.8-1.9-5.7-5.7-5.7c-1.8,0-3.2,0.5-4.2,1.5C467.1,104.9,466.6,106.4,466.6,108.3z"/>
			<path class="st4" d="M512.1,112.9c0,4.2-1,7.4-3.1,9.7s-5,3.5-8.7,3.5c-2.3,0-4.3-0.5-6.1-1.6s-3.1-2.6-4.1-4.6
				c-1-2-1.4-4.3-1.4-7c0-4.2,1-7.4,3.1-9.7c2.1-2.3,5-3.5,8.7-3.5c3.6,0,6.4,1.2,8.5,3.6C511,105.6,512.1,108.8,512.1,112.9z
				 M492.7,112.9c0,3.3,0.7,5.7,2,7.4c1.3,1.7,3.2,2.6,5.7,2.6c2.5,0,4.4-0.8,5.8-2.5c1.3-1.7,2-4.2,2-7.5c0-3.2-0.7-5.7-2-7.4
				c-1.3-1.7-3.2-2.5-5.8-2.5c-2.5,0-4.4,0.8-5.7,2.5C493.3,107.1,492.7,109.6,492.7,112.9z"/>
			<path class="st4" d="M529,126.1c-3.7,0-6.5-1.1-8.6-3.4c-2-2.3-3-5.5-3-9.6c0-4.3,1-7.6,3.1-9.9c2.1-2.3,5-3.5,8.8-3.5
				c1.2,0,2.5,0.1,3.7,0.4c1.2,0.3,2.2,0.6,2.9,0.9l-1.2,3.3c-0.9-0.3-1.8-0.6-2.8-0.8c-1-0.2-1.9-0.3-2.7-0.3
				c-5.2,0-7.8,3.3-7.8,9.9c0,3.1,0.6,5.5,1.9,7.2s3.1,2.5,5.6,2.5c2.1,0,4.3-0.5,6.5-1.4v3.4C533.8,125.7,531.6,126.1,529,126.1z"
				/>
			<path class="st4" d="M541.2,93.2c0-0.9,0.2-1.5,0.7-1.9s1-0.6,1.6-0.6c0.6,0,1.2,0.2,1.6,0.6c0.5,0.4,0.7,1.1,0.7,1.9
				c0,0.9-0.2,1.5-0.7,1.9c-0.4,0.4-1,0.6-1.6,0.6c-0.7,0-1.2-0.2-1.6-0.6S541.2,94.1,541.2,93.2z M545.4,125.7h-3.9v-25.5h3.9
				V125.7z"/>
			<path class="st4" d="M575.6,112.9c0,4.2-1,7.4-3.1,9.7s-5,3.5-8.7,3.5c-2.3,0-4.3-0.5-6.1-1.6s-3.1-2.6-4.1-4.6
				c-1-2-1.4-4.3-1.4-7c0-4.2,1-7.4,3.1-9.7c2.1-2.3,5-3.5,8.7-3.5c3.6,0,6.4,1.2,8.5,3.6C574.5,105.6,575.6,108.8,575.6,112.9z
				 M556.2,112.9c0,3.3,0.7,5.7,2,7.4c1.3,1.7,3.2,2.6,5.7,2.6c2.5,0,4.4-0.8,5.8-2.5c1.3-1.7,2-4.2,2-7.5c0-3.2-0.7-5.7-2-7.4
				c-1.3-1.7-3.2-2.5-5.8-2.5c-2.5,0-4.4,0.8-5.7,2.5C556.8,107.1,556.2,109.6,556.2,112.9z"/>
			<path class="st4" d="M598.8,118.7c0,2.4-0.9,4.2-2.7,5.5c-1.8,1.3-4.2,1.9-7.4,1.9c-3.4,0-6-0.5-7.9-1.6v-3.6
				c1.2,0.6,2.5,1.1,3.9,1.5c1.4,0.4,2.8,0.5,4.1,0.5c2,0,3.6-0.3,4.7-1c1.1-0.6,1.6-1.6,1.6-2.9c0-1-0.4-1.8-1.3-2.5
				s-2.5-1.5-5-2.5c-2.4-0.9-4.1-1.7-5.1-2.3c-1-0.7-1.7-1.4-2.2-2.2c-0.5-0.8-0.7-1.8-0.7-3c0-2.1,0.8-3.7,2.5-4.9
				c1.7-1.2,4-1.8,7-1.8c2.7,0,5.4,0.6,8,1.7l-1.4,3.1c-2.6-1.1-4.9-1.6-7-1.6c-1.8,0-3.2,0.3-4.1,0.9c-0.9,0.6-1.4,1.4-1.4,2.4
				c0,0.7,0.2,1.3,0.5,1.7s0.9,0.9,1.7,1.4s2.3,1.1,4.5,1.9c3,1.1,5.1,2.2,6.1,3.3C598.3,115.6,598.8,117,598.8,118.7z"/>
		</g>
	</g>
</g>
</svg>
