<?xml version="1.0" encoding="utf-8"?>
<!-- Generator: Adobe Illustrator 24.0.1, SVG Export Plug-In . SVG Version: 6.00 Build 0)  -->
<svg version="1.1" xmlns="http://www.w3.org/2000/svg" xmlns:xlink="http://www.w3.org/1999/xlink" x="0px" y="0px"
	 viewBox="0 0 1957 746" style="enable-background:new 0 0 1957 746;" xml:space="preserve">
<style type="text/css">
	.st0{fill:#2EBDEE;}
	.st1{fill:#CAD5CC;}
	.st2{fill:#A7D9E2;}
	.st3{fill:url(#SVGID_5_);}
	.st4{fill:#FFFFFF;}
	.st5{enable-background:new    ;}
	.st6{fill:url(#SVGID_6_);}
	.st7{fill:url(#SVGID_7_);}
	.st8{fill:#1D1D1B;}
	.st9{fill:url(#SVGID_8_);}
	.st10{fill:url(#SVGID_9_);}
	.st11{opacity:0.73;}
	.st12{opacity:0.46;fill:none;stroke:url(#SVGID_10_);stroke-width:3;stroke-miterlimit:10;}
	.st13{opacity:0.46;fill:none;stroke:url(#SVGID_11_);stroke-width:3;stroke-miterlimit:10;}
	.st14{opacity:0.46;fill:none;stroke:url(#SVGID_12_);stroke-width:3;stroke-miterlimit:10;}
	.st15{opacity:0.46;fill:none;stroke:url(#SVGID_13_);stroke-width:3;stroke-miterlimit:10;}
	.st16{opacity:0.4;}
	.st17{fill:#F8F9FA;}
	.st18{opacity:0.74;}
	.st19{opacity:0.42;fill:none;stroke:#FFFFFF;stroke-width:3;stroke-miterlimit:10;}
	.st20{opacity:0.31;}
</style>
<g id="Capa_1">
</g>
<g id="Capa_2">
</g>
<g id="Capa_3">
</g>
<g id="Capa_5">
</g>
<g id="Capa_6">
</g>
<g id="Capa_4">
	<g class="st11">
		
			<linearGradient id="SVGID_2_" gradientUnits="userSpaceOnUse" x1="-1209.9045" y1="1170.6471" x2="-831.8905" y2="1170.6471" gradientTransform="matrix(0.7201 0.1255 -0.1444 0.8286 1085.9021 -249.1873)">
			<stop  offset="0" style="stop-color:#FFFFFF;stop-opacity:0"/>
			<stop  offset="0.9989" style="stop-color:#FFFFFF"/>
		</linearGradient>
		<path style="opacity:0.46;fill:none;stroke:url(#SVGID_2_);stroke-width:3;stroke-miterlimit:10;" d="M59.8,493.7
			c-2.6,13.4,8.8,27,22.8,33.8s30.1,8.6,45.6,11.1c14.8,2.3,29.7,5.4,43.4,11.2c13.7,5.8,26.3,14.6,33.8,26.2
			c8.6,13.4,10.1,29.4,19.2,42.6c10.2,14.7,28.2,23.5,44.4,33.2s32.4,22.8,34.7,39.5"/>
		
			<linearGradient id="SVGID_4_" gradientUnits="userSpaceOnUse" x1="-1189.1545" y1="1149.3411" x2="-811.1404" y2="1149.3411" gradientTransform="matrix(0.7201 0.1255 -0.1444 0.8286 1085.9021 -249.1873)">
			<stop  offset="0" style="stop-color:#FFFFFF;stop-opacity:0"/>
			<stop  offset="0.9989" style="stop-color:#FFFFFF"/>
		</linearGradient>
		<path style="opacity:0.46;fill:none;stroke:url(#SVGID_4_);stroke-width:3;stroke-miterlimit:10;" d="M77.8,478.6
			c-2.6,13.4,8.8,27,22.8,33.8c14,6.9,30.1,8.6,45.6,11.1c14.8,2.3,29.7,5.4,43.4,11.2s26.3,14.6,33.8,26.2
			c8.6,13.4,10.1,29.4,19.2,42.6c10.2,14.7,28.2,23.5,44.4,33.2c16.2,9.7,32.4,22.8,34.7,39.5"/>
		
			<linearGradient id="SVGID_5_" gradientUnits="userSpaceOnUse" x1="-1250.4849" y1="1214.2777" x2="-872.4708" y2="1214.2777" gradientTransform="matrix(0.7201 0.1255 -0.1444 0.8286 1085.9021 -249.1873)">
			<stop  offset="0" style="stop-color:#FFFFFF;stop-opacity:0"/>
			<stop  offset="0.9989" style="stop-color:#FFFFFF"/>
		</linearGradient>
		<path style="opacity:0.46;fill:none;stroke:url(#SVGID_5_);stroke-width:3;stroke-miterlimit:10;" d="M24.3,524.7
			c-2.6,13.4,8.8,27,22.8,33.8s30.1,8.6,45.6,11.1c14.8,2.3,29.7,5.4,43.4,11.2c13.7,5.8,26.3,14.6,33.8,26.2
			c8.6,13.4,10.1,29.4,19.2,42.6c10.2,14.7,28.2,23.5,44.4,33.2s32.4,22.8,34.7,39.5"/>
		
			<linearGradient id="SVGID_6_" gradientUnits="userSpaceOnUse" x1="-1229.7347" y1="1192.9717" x2="-851.7206" y2="1192.9717" gradientTransform="matrix(0.7201 0.1255 -0.1444 0.8286 1085.9021 -249.1873)">
			<stop  offset="0" style="stop-color:#FFFFFF;stop-opacity:0"/>
			<stop  offset="0.9989" style="stop-color:#FFFFFF"/>
		</linearGradient>
		<path style="opacity:0.46;fill:none;stroke:url(#SVGID_6_);stroke-width:3;stroke-miterlimit:10;" d="M42.3,509.7
			c-2.6,13.4,8.8,27,22.8,33.8s30.1,8.6,45.6,11.1c14.8,2.3,29.7,5.4,43.4,11.2c13.7,5.8,26.3,14.6,33.8,26.2
			c8.6,13.4,10.1,29.4,19.2,42.6c10.2,14.7,28.2,23.5,44.4,33.2c16.2,9.7,32.4,22.8,34.7,39.5"/>
	</g>
	<g>
		<g class="st16">
			<g>
				<circle class="st17" cx="1371.4" cy="54.8" r="3.7"/>
				<circle class="st17" cx="1394.1" cy="54.8" r="3.7"/>
				<circle class="st17" cx="1416.9" cy="54.8" r="3.7"/>
				<circle class="st17" cx="1439.7" cy="54.8" r="3.7"/>
				<circle class="st17" cx="1462.4" cy="54.8" r="3.7"/>
				<circle class="st17" cx="1485.2" cy="54.8" r="3.7"/>
				<circle class="st17" cx="1507.9" cy="54.8" r="3.7"/>
				<circle class="st17" cx="1530.7" cy="54.8" r="3.7"/>
				<circle class="st17" cx="1553.5" cy="54.8" r="3.7"/>
				<circle class="st17" cx="1576.2" cy="54.8" r="3.7"/>
				<circle class="st17" cx="1599" cy="54.8" r="3.7"/>
				<circle class="st17" cx="1621.8" cy="54.8" r="3.7"/>
			</g>
			<g>
				<circle class="st17" cx="1371.4" cy="75.2" r="3.7"/>
				<circle class="st17" cx="1394.1" cy="75.2" r="3.7"/>
				<circle class="st17" cx="1416.9" cy="75.2" r="3.7"/>
				<circle class="st17" cx="1439.7" cy="75.2" r="3.7"/>
				<circle class="st17" cx="1462.4" cy="75.2" r="3.7"/>
				<circle class="st17" cx="1485.2" cy="75.2" r="3.7"/>
				<circle class="st17" cx="1507.9" cy="75.2" r="3.7"/>
				<circle class="st17" cx="1530.7" cy="75.2" r="3.7"/>
				<circle class="st17" cx="1553.5" cy="75.2" r="3.7"/>
				<circle class="st17" cx="1576.2" cy="75.2" r="3.7"/>
				<circle class="st17" cx="1599" cy="75.2" r="3.7"/>
				<circle class="st17" cx="1621.8" cy="75.2" r="3.7"/>
			</g>
			<g>
				<circle class="st17" cx="1371.4" cy="95.6" r="3.7"/>
				<circle class="st17" cx="1394.1" cy="95.6" r="3.7"/>
				<circle class="st17" cx="1416.9" cy="95.6" r="3.7"/>
				<circle class="st17" cx="1439.7" cy="95.6" r="3.7"/>
				<circle class="st17" cx="1462.4" cy="95.6" r="3.7"/>
				<circle class="st17" cx="1485.2" cy="95.6" r="3.7"/>
				<circle class="st17" cx="1507.9" cy="95.6" r="3.7"/>
				<circle class="st17" cx="1530.7" cy="95.6" r="3.7"/>
				<circle class="st17" cx="1553.5" cy="95.6" r="3.7"/>
				<circle class="st17" cx="1576.2" cy="95.6" r="3.7"/>
				<circle class="st17" cx="1599" cy="95.6" r="3.7"/>
				<circle class="st17" cx="1621.8" cy="95.6" r="3.7"/>
			</g>
			<g>
				<circle class="st17" cx="1371.4" cy="115.9" r="3.7"/>
				<circle class="st17" cx="1394.1" cy="115.9" r="3.7"/>
				<circle class="st17" cx="1416.9" cy="115.9" r="3.7"/>
				<circle class="st17" cx="1439.7" cy="115.9" r="3.7"/>
				<circle class="st17" cx="1462.4" cy="115.9" r="3.7"/>
				<circle class="st17" cx="1485.2" cy="115.9" r="3.7"/>
				<circle class="st17" cx="1507.9" cy="115.9" r="3.7"/>
				<circle class="st17" cx="1530.7" cy="115.9" r="3.7"/>
				<circle class="st17" cx="1553.5" cy="115.9" r="3.7"/>
				<circle class="st17" cx="1576.2" cy="115.9" r="3.7"/>
				<circle class="st17" cx="1599" cy="115.9" r="3.7"/>
				<circle class="st17" cx="1621.8" cy="115.9" r="3.7"/>
			</g>
			<g>
				<circle class="st17" cx="1371.4" cy="136.3" r="3.7"/>
				<circle class="st17" cx="1394.1" cy="136.3" r="3.7"/>
				<circle class="st17" cx="1416.9" cy="136.3" r="3.7"/>
				<circle class="st17" cx="1439.7" cy="136.3" r="3.7"/>
				<circle class="st17" cx="1462.4" cy="136.3" r="3.7"/>
				<circle class="st17" cx="1485.2" cy="136.3" r="3.7"/>
				<circle class="st17" cx="1507.9" cy="136.3" r="3.7"/>
				<circle class="st17" cx="1530.7" cy="136.3" r="3.7"/>
				<circle class="st17" cx="1553.5" cy="136.3" r="3.7"/>
				<circle class="st17" cx="1576.2" cy="136.3" r="3.7"/>
				<circle class="st17" cx="1599" cy="136.3" r="3.7"/>
				<circle class="st17" cx="1621.8" cy="136.3" r="3.7"/>
			</g>
			<g>
				<circle class="st17" cx="1371.4" cy="156.7" r="3.7"/>
				<circle class="st17" cx="1394.1" cy="156.7" r="3.7"/>
				<circle class="st17" cx="1416.9" cy="156.7" r="3.7"/>
				<circle class="st17" cx="1439.7" cy="156.7" r="3.7"/>
				<circle class="st17" cx="1462.4" cy="156.7" r="3.7"/>
				<circle class="st17" cx="1485.2" cy="156.7" r="3.7"/>
				<circle class="st17" cx="1507.9" cy="156.7" r="3.7"/>
				<circle class="st17" cx="1530.7" cy="156.7" r="3.7"/>
				<circle class="st17" cx="1553.5" cy="156.7" r="3.7"/>
				<circle class="st17" cx="1576.2" cy="156.7" r="3.7"/>
				<circle class="st17" cx="1599" cy="156.7" r="3.7"/>
				<circle class="st17" cx="1621.8" cy="156.7" r="3.7"/>
			</g>
			<g>
				<circle class="st17" cx="1371.4" cy="177.1" r="3.7"/>
				<circle class="st17" cx="1394.1" cy="177.1" r="3.7"/>
				<circle class="st17" cx="1416.9" cy="177.1" r="3.7"/>
				<circle class="st17" cx="1439.7" cy="177.1" r="3.7"/>
				<circle class="st17" cx="1462.4" cy="177.1" r="3.7"/>
				<circle class="st17" cx="1485.2" cy="177.1" r="3.7"/>
				<circle class="st17" cx="1507.9" cy="177.1" r="3.7"/>
				<circle class="st17" cx="1530.7" cy="177.1" r="3.7"/>
				<circle class="st17" cx="1553.5" cy="177.1" r="3.7"/>
				<circle class="st17" cx="1576.2" cy="177.1" r="3.7"/>
				<circle class="st17" cx="1599" cy="177.1" r="3.7"/>
				<circle class="st17" cx="1621.8" cy="177.1" r="3.7"/>
			</g>
			<g>
				<circle class="st17" cx="1371.4" cy="197.5" r="3.7"/>
				<circle class="st17" cx="1394.1" cy="197.5" r="3.7"/>
				<circle class="st17" cx="1416.9" cy="197.5" r="3.7"/>
				<circle class="st17" cx="1439.7" cy="197.5" r="3.7"/>
				<circle class="st17" cx="1462.4" cy="197.5" r="3.7"/>
				<circle class="st17" cx="1485.2" cy="197.5" r="3.7"/>
				<circle class="st17" cx="1507.9" cy="197.5" r="3.7"/>
				<circle class="st17" cx="1530.7" cy="197.5" r="3.7"/>
				<circle class="st17" cx="1553.5" cy="197.5" r="3.7"/>
				<circle class="st17" cx="1576.2" cy="197.5" r="3.7"/>
				<circle class="st17" cx="1599" cy="197.5" r="3.7"/>
				<circle class="st17" cx="1621.8" cy="197.5" r="3.7"/>
			</g>
			<g>
				<circle class="st17" cx="1371.4" cy="217.9" r="3.7"/>
				<circle class="st17" cx="1394.1" cy="217.9" r="3.7"/>
				<circle class="st17" cx="1416.9" cy="217.9" r="3.7"/>
				<circle class="st17" cx="1439.7" cy="217.9" r="3.7"/>
				<circle class="st17" cx="1462.4" cy="217.9" r="3.7"/>
				<circle class="st17" cx="1485.2" cy="217.9" r="3.7"/>
				<circle class="st17" cx="1507.9" cy="217.9" r="3.7"/>
				<circle class="st17" cx="1530.7" cy="217.9" r="3.7"/>
				<circle class="st17" cx="1553.5" cy="217.9" r="3.7"/>
				<circle class="st17" cx="1576.2" cy="217.9" r="3.7"/>
				<circle class="st17" cx="1599" cy="217.9" r="3.7"/>
				<circle class="st17" cx="1621.8" cy="217.9" r="3.7"/>
			</g>
			<g>
				<circle class="st17" cx="1371.4" cy="238.3" r="3.7"/>
				<circle class="st17" cx="1394.1" cy="238.3" r="3.7"/>
				<circle class="st17" cx="1416.9" cy="238.3" r="3.7"/>
				<circle class="st17" cx="1439.7" cy="238.3" r="3.7"/>
				<circle class="st17" cx="1462.4" cy="238.3" r="3.7"/>
				<circle class="st17" cx="1485.2" cy="238.3" r="3.7"/>
				<circle class="st17" cx="1507.9" cy="238.3" r="3.7"/>
				<circle class="st17" cx="1530.7" cy="238.3" r="3.7"/>
				<circle class="st17" cx="1553.5" cy="238.3" r="3.7"/>
				<circle class="st17" cx="1576.2" cy="238.3" r="3.7"/>
				<circle class="st17" cx="1599" cy="238.3" r="3.7"/>
				<circle class="st17" cx="1621.8" cy="238.3" r="3.7"/>
			</g>
			<g>
				<circle class="st17" cx="1371.4" cy="258.7" r="3.7"/>
				<circle class="st17" cx="1394.1" cy="258.7" r="3.7"/>
				<circle class="st17" cx="1416.9" cy="258.7" r="3.7"/>
				<circle class="st17" cx="1439.7" cy="258.7" r="3.7"/>
				<circle class="st17" cx="1462.4" cy="258.7" r="3.7"/>
				<circle class="st17" cx="1485.2" cy="258.7" r="3.7"/>
				<circle class="st17" cx="1507.9" cy="258.7" r="3.7"/>
				<circle class="st17" cx="1530.7" cy="258.7" r="3.7"/>
				<circle class="st17" cx="1553.5" cy="258.7" r="3.7"/>
				<circle class="st17" cx="1576.2" cy="258.7" r="3.7"/>
				<circle class="st17" cx="1599" cy="258.7" r="3.7"/>
				<circle class="st17" cx="1621.8" cy="258.7" r="3.7"/>
			</g>
			<g>
				<circle class="st17" cx="1371.4" cy="279.1" r="3.7"/>
				<circle class="st17" cx="1394.1" cy="279.1" r="3.7"/>
				<circle class="st17" cx="1416.9" cy="279.1" r="3.7"/>
				<circle class="st17" cx="1439.7" cy="279.1" r="3.7"/>
				<circle class="st17" cx="1462.4" cy="279.1" r="3.7"/>
				<circle class="st17" cx="1485.2" cy="279.1" r="3.7"/>
				<circle class="st17" cx="1507.9" cy="279.1" r="3.7"/>
				<circle class="st17" cx="1530.7" cy="279.1" r="3.7"/>
				<circle class="st17" cx="1553.5" cy="279.1" r="3.7"/>
				<circle class="st17" cx="1576.2" cy="279.1" r="3.7"/>
				<circle class="st17" cx="1599" cy="279.1" r="3.7"/>
				<circle class="st17" cx="1621.8" cy="279.1" r="3.7"/>
			</g>
		</g>
		<g class="st16">
			<g>
				<circle class="st17" cx="1644.4" cy="54.8" r="3.7"/>
				<circle class="st17" cx="1667.1" cy="54.8" r="3.7"/>
				<circle class="st17" cx="1689.9" cy="54.8" r="3.7"/>
				<circle class="st17" cx="1712.7" cy="54.8" r="3.7"/>
				<circle class="st17" cx="1735.4" cy="54.8" r="3.7"/>
				<circle class="st17" cx="1758.2" cy="54.8" r="3.7"/>
				<circle class="st17" cx="1780.9" cy="54.8" r="3.7"/>
				<circle class="st17" cx="1803.7" cy="54.8" r="3.7"/>
				<circle class="st17" cx="1826.5" cy="54.8" r="3.7"/>
				<circle class="st17" cx="1849.2" cy="54.8" r="3.7"/>
				<circle class="st17" cx="1872" cy="54.8" r="3.7"/>
				<circle class="st17" cx="1894.8" cy="54.8" r="3.7"/>
			</g>
			<g>
				<circle class="st17" cx="1644.4" cy="75.2" r="3.7"/>
				<circle class="st17" cx="1667.1" cy="75.2" r="3.7"/>
				<circle class="st17" cx="1689.9" cy="75.2" r="3.7"/>
				<circle class="st17" cx="1712.7" cy="75.2" r="3.7"/>
				<circle class="st17" cx="1735.4" cy="75.2" r="3.7"/>
				<circle class="st17" cx="1758.2" cy="75.2" r="3.7"/>
				<circle class="st17" cx="1780.9" cy="75.2" r="3.7"/>
				<circle class="st17" cx="1803.7" cy="75.2" r="3.7"/>
				<circle class="st17" cx="1826.5" cy="75.2" r="3.7"/>
				<circle class="st17" cx="1849.2" cy="75.2" r="3.7"/>
				<circle class="st17" cx="1872" cy="75.2" r="3.7"/>
				<circle class="st17" cx="1894.8" cy="75.2" r="3.7"/>
			</g>
			<g>
				<circle class="st17" cx="1644.4" cy="95.6" r="3.7"/>
				<circle class="st17" cx="1667.1" cy="95.6" r="3.7"/>
				<circle class="st17" cx="1689.9" cy="95.6" r="3.7"/>
				<circle class="st17" cx="1712.7" cy="95.6" r="3.7"/>
				<circle class="st17" cx="1735.4" cy="95.6" r="3.7"/>
				<circle class="st17" cx="1758.2" cy="95.6" r="3.7"/>
				<circle class="st17" cx="1780.9" cy="95.6" r="3.7"/>
				<circle class="st17" cx="1803.7" cy="95.6" r="3.7"/>
				<circle class="st17" cx="1826.5" cy="95.6" r="3.7"/>
				<circle class="st17" cx="1849.2" cy="95.6" r="3.7"/>
				<circle class="st17" cx="1872" cy="95.6" r="3.7"/>
				<circle class="st17" cx="1894.8" cy="95.6" r="3.7"/>
			</g>
			<g>
				<circle class="st17" cx="1644.4" cy="115.9" r="3.7"/>
				<circle class="st17" cx="1667.1" cy="115.9" r="3.7"/>
				<circle class="st17" cx="1689.9" cy="115.9" r="3.7"/>
				<circle class="st17" cx="1712.7" cy="115.9" r="3.7"/>
				<circle class="st17" cx="1735.4" cy="115.9" r="3.7"/>
				<circle class="st17" cx="1758.2" cy="115.9" r="3.7"/>
				<circle class="st17" cx="1780.9" cy="115.9" r="3.7"/>
				<circle class="st17" cx="1803.7" cy="115.9" r="3.7"/>
				<circle class="st17" cx="1826.5" cy="115.9" r="3.7"/>
				<circle class="st17" cx="1849.2" cy="115.9" r="3.7"/>
				<circle class="st17" cx="1872" cy="115.9" r="3.7"/>
				<circle class="st17" cx="1894.8" cy="115.9" r="3.7"/>
			</g>
			<g>
				<circle class="st17" cx="1644.4" cy="136.3" r="3.7"/>
				<circle class="st17" cx="1667.1" cy="136.3" r="3.7"/>
				<circle class="st17" cx="1689.9" cy="136.3" r="3.7"/>
				<circle class="st17" cx="1712.7" cy="136.3" r="3.7"/>
				<circle class="st17" cx="1735.4" cy="136.3" r="3.7"/>
				<circle class="st17" cx="1758.2" cy="136.3" r="3.7"/>
				<circle class="st17" cx="1780.9" cy="136.3" r="3.7"/>
				<circle class="st17" cx="1803.7" cy="136.3" r="3.7"/>
				<circle class="st17" cx="1826.5" cy="136.3" r="3.7"/>
				<circle class="st17" cx="1849.2" cy="136.3" r="3.7"/>
				<circle class="st17" cx="1872" cy="136.3" r="3.7"/>
				<circle class="st17" cx="1894.8" cy="136.3" r="3.7"/>
			</g>
			<g>
				<circle class="st17" cx="1644.4" cy="156.7" r="3.7"/>
				<circle class="st17" cx="1667.1" cy="156.7" r="3.7"/>
				<circle class="st17" cx="1689.9" cy="156.7" r="3.7"/>
				<circle class="st17" cx="1712.7" cy="156.7" r="3.7"/>
				<circle class="st17" cx="1735.4" cy="156.7" r="3.7"/>
				<circle class="st17" cx="1758.2" cy="156.7" r="3.7"/>
				<circle class="st17" cx="1780.9" cy="156.7" r="3.7"/>
				<circle class="st17" cx="1803.7" cy="156.7" r="3.7"/>
				<circle class="st17" cx="1826.5" cy="156.7" r="3.7"/>
				<circle class="st17" cx="1849.2" cy="156.7" r="3.7"/>
				<circle class="st17" cx="1872" cy="156.7" r="3.7"/>
				<circle class="st17" cx="1894.8" cy="156.7" r="3.7"/>
			</g>
			<g>
				<circle class="st17" cx="1644.4" cy="177.1" r="3.7"/>
				<circle class="st17" cx="1667.1" cy="177.1" r="3.7"/>
				<circle class="st17" cx="1689.9" cy="177.1" r="3.7"/>
				<circle class="st17" cx="1712.7" cy="177.1" r="3.7"/>
				<circle class="st17" cx="1735.4" cy="177.1" r="3.7"/>
				<circle class="st17" cx="1758.2" cy="177.1" r="3.7"/>
				<circle class="st17" cx="1780.9" cy="177.1" r="3.7"/>
				<circle class="st17" cx="1803.7" cy="177.1" r="3.7"/>
				<circle class="st17" cx="1826.5" cy="177.1" r="3.7"/>
				<circle class="st17" cx="1849.2" cy="177.1" r="3.7"/>
				<circle class="st17" cx="1872" cy="177.1" r="3.7"/>
				<circle class="st17" cx="1894.8" cy="177.1" r="3.7"/>
			</g>
			<g>
				<circle class="st17" cx="1644.4" cy="197.5" r="3.7"/>
				<circle class="st17" cx="1667.1" cy="197.5" r="3.7"/>
				<circle class="st17" cx="1689.9" cy="197.5" r="3.7"/>
				<circle class="st17" cx="1712.7" cy="197.5" r="3.7"/>
				<circle class="st17" cx="1735.4" cy="197.5" r="3.7"/>
				<circle class="st17" cx="1758.2" cy="197.5" r="3.7"/>
				<circle class="st17" cx="1780.9" cy="197.5" r="3.7"/>
				<circle class="st17" cx="1803.7" cy="197.5" r="3.7"/>
				<circle class="st17" cx="1826.5" cy="197.5" r="3.7"/>
				<circle class="st17" cx="1849.2" cy="197.5" r="3.7"/>
				<circle class="st17" cx="1872" cy="197.5" r="3.7"/>
				<circle class="st17" cx="1894.8" cy="197.5" r="3.7"/>
			</g>
			<g>
				<circle class="st17" cx="1644.4" cy="217.9" r="3.7"/>
				<circle class="st17" cx="1667.1" cy="217.9" r="3.7"/>
				<circle class="st17" cx="1689.9" cy="217.9" r="3.7"/>
				<circle class="st17" cx="1712.7" cy="217.9" r="3.7"/>
				<circle class="st17" cx="1735.4" cy="217.9" r="3.7"/>
				<circle class="st17" cx="1758.2" cy="217.9" r="3.7"/>
				<circle class="st17" cx="1780.9" cy="217.9" r="3.7"/>
				<circle class="st17" cx="1803.7" cy="217.9" r="3.7"/>
				<circle class="st17" cx="1826.5" cy="217.9" r="3.7"/>
				<circle class="st17" cx="1849.2" cy="217.9" r="3.7"/>
				<circle class="st17" cx="1872" cy="217.9" r="3.7"/>
				<circle class="st17" cx="1894.8" cy="217.9" r="3.7"/>
			</g>
			<g>
				<circle class="st17" cx="1644.4" cy="238.3" r="3.7"/>
				<circle class="st17" cx="1667.1" cy="238.3" r="3.7"/>
				<circle class="st17" cx="1689.9" cy="238.3" r="3.7"/>
				<circle class="st17" cx="1712.7" cy="238.3" r="3.7"/>
				<circle class="st17" cx="1735.4" cy="238.3" r="3.7"/>
				<circle class="st17" cx="1758.2" cy="238.3" r="3.7"/>
				<circle class="st17" cx="1780.9" cy="238.3" r="3.7"/>
				<circle class="st17" cx="1803.7" cy="238.3" r="3.7"/>
				<circle class="st17" cx="1826.5" cy="238.3" r="3.7"/>
				<circle class="st17" cx="1849.2" cy="238.3" r="3.7"/>
				<circle class="st17" cx="1872" cy="238.3" r="3.7"/>
				<circle class="st17" cx="1894.8" cy="238.3" r="3.7"/>
			</g>
			<g>
				<circle class="st17" cx="1644.4" cy="258.7" r="3.7"/>
				<circle class="st17" cx="1667.1" cy="258.7" r="3.7"/>
				<circle class="st17" cx="1689.9" cy="258.7" r="3.7"/>
				<circle class="st17" cx="1712.7" cy="258.7" r="3.7"/>
				<circle class="st17" cx="1735.4" cy="258.7" r="3.7"/>
				<circle class="st17" cx="1758.2" cy="258.7" r="3.7"/>
				<circle class="st17" cx="1780.9" cy="258.7" r="3.7"/>
				<circle class="st17" cx="1803.7" cy="258.7" r="3.7"/>
				<circle class="st17" cx="1826.5" cy="258.7" r="3.7"/>
				<circle class="st17" cx="1849.2" cy="258.7" r="3.7"/>
				<circle class="st17" cx="1872" cy="258.7" r="3.7"/>
				<circle class="st17" cx="1894.8" cy="258.7" r="3.7"/>
			</g>
			<g>
				<circle class="st17" cx="1644.4" cy="279.1" r="3.7"/>
				<circle class="st17" cx="1667.1" cy="279.1" r="3.7"/>
				<circle class="st17" cx="1689.9" cy="279.1" r="3.7"/>
				<circle class="st17" cx="1712.7" cy="279.1" r="3.7"/>
				<circle class="st17" cx="1735.4" cy="279.1" r="3.7"/>
				<circle class="st17" cx="1758.2" cy="279.1" r="3.7"/>
				<circle class="st17" cx="1780.9" cy="279.1" r="3.7"/>
				<circle class="st17" cx="1803.7" cy="279.1" r="3.7"/>
				<circle class="st17" cx="1826.5" cy="279.1" r="3.7"/>
				<circle class="st17" cx="1849.2" cy="279.1" r="3.7"/>
				<circle class="st17" cx="1872" cy="279.1" r="3.7"/>
				<circle class="st17" cx="1894.8" cy="279.1" r="3.7"/>
			</g>
		</g>
	</g>
	<g class="st18">
		<rect x="194.1" y="49.8" class="st19" width="55.4" height="70"/>
		<rect x="221.8" y="84.8" class="st19" width="55.4" height="70"/>
	</g>
	<g class="st18">
		<rect x="1772.1" y="598.8" class="st19" width="55.4" height="70"/>
		<rect x="1799.8" y="633.8" class="st19" width="55.4" height="70"/>
	</g>
	<g class="st20">
		<rect x="1404.7" y="464.2" class="st19" width="72.1" height="91.1"/>
		<rect x="1440.7" y="509.8" class="st19" width="72.1" height="91.1"/>
	</g>
	<g class="st20">
		<rect x="536.7" y="146.2" class="st19" width="72.1" height="91.1"/>
		<rect x="572.7" y="191.8" class="st19" width="72.1" height="91.1"/>
	</g>
</g>
</svg>
